# xmcd
#
# Track frame offsets:
#	150
#	20122
#	36408
#	53171
#	73522
#	89729
#	106301
#	120442
#	137254
#	151919
#	166742
#	183310
#	195517
#	213613
#
# Disc length: 3078 seconds
#
# Revision: 0
# Processed by: cddbd v1.5.1PL2 Copyright (c) Steve Scherf et al.
# Submitted via: SynApp - FreeCDDB Version: 2.0
#
DISCID=bd0c040e
DTITLE=SteeRecords - SteeRecords
DYEAR=2005
DGENRE=Country
TTITLE0=The Atherton Brothers - The old veranda
TTITLE1=Keri Micnerney - Outrun the wind
TTITLE2=Steve Dooley - Mud on The wheels
TTITLE3=Gina Briskey - From the Lambing to the Woll
TTITLE4=Dave Walker - Never been this close to heaven
TTITLE5=Double Vision - Dont' t move
TTITLE6=Laura Downing - Yodeling Blues
TTITLE7=Tony Morris - Hands of Time
TTITLE8=Jeff Brown - Mate I'm fellin'lucky
TTITLE9=Rob Cass and the Cosmic Cowboys - Sheep and Catle
TTITLE10=Merilyn Steele - Ten less candles
TTITLE11=Steve Lowry - Take this broken heart
TTITLE12=Jason Kamp - Pass the Lagacy on
TTITLE13=Leisa Maree Jackwitz - You where there
EXTD=
EXTT0=
EXTT1=
EXTT2=
EXTT3=
EXTT4=
EXTT5=
EXTT6=
EXTT7=
EXTT8=
EXTT9=
EXTT10=
EXTT11=
EXTT12=
EXTT13=
PLAYORDER=
